# xmcd
#
# Track frame offsets:
#	150
#	12908
#	28423
#	45695
#	62953
#	75858
#	93143
#	107318
#	118845
#	134760
#	155988
#	176830
#	193388
#
# Disc length: 2827 seconds
#
# Revision: 0
# Processed by: cddbd v1.4PL0 Copyright (c) Steve Scherf et al.
# Submitted via: EasyCDDAExtractor 4.6.9.1
#
DISCID=b60b090d
DTITLE=Hugues Aufray - The very Best Of
DYEAR=1900
DGENRE=
TTITLE0=La terre est si belle
TTITLE1=Santiano
TTITLE2=Stewball
TTITLE3=Céline
TTITLE4=Hasta Luego
TTITLE5=La fille du Nord
TTITLE6=Les crayons de couleur
TTITLE7=L'épervier
TTITLE8=Le petit ane gris
TTITLE9=N'y pense plus, tout est bien
TTITLE10=Cauchemar psychomoteur
TTITLE11=Dès que le printemps revient
TTITLE12=Adieu monsieur le professeur
EXTD=
EXTT0=
EXTT1=
EXTT2=
EXTT3=
EXTT4=
EXTT5=
EXTT6=
EXTT7=
EXTT8=
EXTT9=
EXTT10=
EXTT11=
EXTT12=
PLAYORDER=
